<?xml version="1.0" encoding="utf-8"?>
<!-- Generator: Adobe Illustrator 22.0.1, SVG Export Plug-In . SVG Version: 6.00 Build 0)  -->
<svg version="1.1" id="Calque_1" xmlns="http://www.w3.org/2000/svg" xmlns:xlink="http://www.w3.org/1999/xlink" x="0px" y="0px"
	 viewBox="0 0 40 40" style="enable-background:new 0 0 40 40;" xml:space="preserve">
<style type="text/css">
	.st0{fill:#FCD098;}
</style>
<g>
	<path class="st0" d="M16.1,38.3H6.2V16.3c0-4,1.1-7.3,3.2-9.8C10.6,5,12.2,3.9,14,3c1.9-0.9,3.8-1.3,5.8-1.3c3.9,0,7.2,1.3,9.9,4
		s4,5.9,4,9.7c0,3.7-1.3,6.9-4,9.7c-2.7,2.7-5.8,4.1-9.5,4.1c-0.6,0-1.5-0.1-2.6-0.2V18c0.8,0.7,1.6,1,2.4,1c1,0,1.9-0.4,2.6-1.1
		c0.7-0.8,1.1-1.7,1.1-2.7c0-1-0.4-1.9-1.1-2.6c-0.8-0.7-1.7-1.1-2.7-1.1c-2.5,0-3.8,1.7-3.8,5.2V38.3z"/>
</g>
</svg>
